<?xml version="1.0" encoding="UTF-8"?>
<svg width="1440px" height="1024px" viewBox="0 0 1440 1024" version="1.1" xmlns="http://www.w3.org/2000/svg" xmlns:xlink="http://www.w3.org/1999/xlink">
    <!-- Generator: Sketch 50.2 (55047) - http://www.bohemiancoding.com/sketch -->
    <title>logo</title>
    <desc>Created with Sketch.</desc>
    <defs></defs>
    <g id="authenication" stroke="none" stroke-width="1" fill="none" fill-rule="evenodd" opacity="0.25147192">
        <g id="user---login" fill="#FE0000" fill-rule="nonzero">
            <g id="oba" style="mix-blend-mode: multiply;" transform="translate(-243.000000, 0.000000)">
                <path d="M958.360432,848.824975 C1059.3255,848.824975 1118.69296,782.104228 1118.69296,684.744346 C1118.69296,587.384464 1058.11392,520.663717 958.360432,520.663717 C858.606944,520.663717 797.825973,587.182891 797.825973,685.349066 C797.825973,783.515241 858.405014,849.429695 958.360432,849.429695 L958.360432,848.824975 Z M613.261827,0 L813.778454,0 L813.778454,429.754179 L816.403546,429.754179 C861.837826,367.064897 939.580929,344.488692 1022.37229,344.488692 C1206.93643,344.488692 1319.20959,509.980334 1319.20959,690.186824 C1319.20959,886.922321 1191.38781,1025 999.75611,1025 C921.209776,1024.27444 847.501931,987.001102 800.451065,924.213373 L797.825973,924.213373 L797.825973,1009.88201 L613.261827,1009.88201 L613.261827,0 Z M379.022868,685.349066 C379.022868,610.162242 328.944194,564.405113 255.643554,564.405113 C182.342914,564.405113 132.26424,609.355949 132.26424,685.349066 C132.26424,761.342183 181.737124,806.293019 255.643554,806.293019 C329.549984,806.293019 379.022868,761.342183 379.022868,685.349066 Z M0,685.349066 C0,535.176991 100.965069,415.039331 255.643554,415.039331 C410.322039,415.039331 511.489038,535.983284 511.489038,685.349066 C511.489038,834.714848 410.523969,955.6588 255.643554,955.6588 C100.763139,955.6588 0,836.327434 0,685.349066 Z M1699.44404,632.738446 C1699.44404,678.697148 1703.48264,780.894789 1769.71572,780.894789 C1805.65929,780.894789 1822.82335,742.797443 1822.82335,709.941003 C1822.82335,650.880039 1791.72611,595.850541 1731.349,595.850541 L1699.44404,595.850541 L1699.44404,632.738446 Z M1851.69936,596.656834 L1851.69936,598.672566 C1903.99927,631.73058 1925,691.79941 1925,753.077679 C1925,843.987217 1872.90202,926.229105 1774.56205,926.229105 C1605.95038,926.229105 1603.12336,722.035398 1603.12336,596.858407 C1549.8138,596.858407 1515.88954,641.00295 1515.88954,692.807276 C1516.71561,740.158222 1538.35102,784.753063 1575.05507,814.759095 L1492.86951,895.388397 C1440.22582,836.390748 1411.87732,759.704229 1413.51096,680.712881 C1413.51096,505.545723 1502.76408,458.982301 1665.11591,458.982301 L1912.88419,458.982301 L1912.88419,596.656834 L1851.69936,596.656834 Z" id="logo" style="mix-blend-mode: overlay;"></path>
            </g>
        </g>
    </g>
</svg>