<?xml version="1.0" encoding="UTF-8"?>
<svg width="15px" height="19px" viewBox="0 0 15 19" version="1.1" xmlns="http://www.w3.org/2000/svg" xmlns:xlink="http://www.w3.org/1999/xlink">
    <!-- Generator: Sketch 50 (54983) - http://www.bohemiancoding.com/sketch -->
    <title>assignment-active</title>
    <desc>Created with Sketch.</desc>
    <defs></defs>
    <g id="admin" stroke="none" stroke-width="1" fill="none" fill-rule="evenodd">
        <g id="admin---assignments---overview" transform="translate(-24.000000, -240.000000)" fill="#FE0000" fill-rule="nonzero">
            <g id="sidebar">
                <g id="menu" transform="translate(0.000000, 94.000000)">
                    <g id="menu-button" transform="translate(0.000000, 133.000000)">
                        <g id="assignment-active" transform="translate(24.000000, 13.000000)">
                            <polygon id="Shape" points="10.6578947 0.626052632 10.6578947 4.34210526 14.3739474 4.34210526"></polygon>
                            <path d="M9.86842105,4.73684211 L9.86842105,0 L0.789473684,0 C0.353289474,0 0,0.353289474 0,0.789473684 L0,17.3684211 C0,17.8046053 0.353289474,18.1578947 0.789473684,18.1578947 L14.2105263,18.1578947 C14.6467105,18.1578947 15,17.8046053 15,17.3684211 L15,5.13157895 L10.2631579,5.13157895 C10.0452632,5.13157895 9.86842105,4.95473684 9.86842105,4.73684211 Z M3.55263158,5.52631579 L6.71052632,5.52631579 C6.92881579,5.52631579 7.10526316,5.70315789 7.10526316,5.92105263 C7.10526316,6.13894737 6.92881579,6.31578947 6.71052632,6.31578947 L3.55263158,6.31578947 C3.33434211,6.31578947 3.15789474,6.13894737 3.15789474,5.92105263 C3.15789474,5.70315789 3.33434211,5.52631579 3.55263158,5.52631579 Z M11.4473684,14.2105263 L3.55263158,14.2105263 C3.33434211,14.2105263 3.15789474,14.0336842 3.15789474,13.8157895 C3.15789474,13.5978947 3.33434211,13.4210526 3.55263158,13.4210526 L11.4473684,13.4210526 C11.6656579,13.4210526 11.8421053,13.5978947 11.8421053,13.8157895 C11.8421053,14.0336842 11.6656579,14.2105263 11.4473684,14.2105263 Z M11.8421053,9.86842105 C11.8421053,10.0863158 11.6656579,10.2631579 11.4473684,10.2631579 L3.55263158,10.2631579 C3.33434211,10.2631579 3.15789474,10.0863158 3.15789474,9.86842105 C3.15789474,9.65052632 3.33434211,9.47368421 3.55263158,9.47368421 L11.4473684,9.47368421 C11.6656579,9.47368421 11.8421053,9.65052632 11.8421053,9.86842105 Z" id="Shape"></path>
                        </g>
                    </g>
                </g>
            </g>
        </g>
    </g>
</svg>