<?xml version="1.0" encoding="UTF-8"?>
<svg width="15px" height="9px" viewBox="0 0 15 9" version="1.1" xmlns="http://www.w3.org/2000/svg" xmlns:xlink="http://www.w3.org/1999/xlink">
    <!-- Generator: Sketch 50 (54983) - http://www.bohemiancoding.com/sketch -->
    <title>result</title>
    <desc>Created with Sketch.</desc>
    <defs></defs>
    <g id="admin" stroke="none" stroke-width="1" fill="none" fill-rule="evenodd">
        <g id="admin---assignments---overview" transform="translate(-24.000000, -294.000000)" fill="#4C4C4C" fill-rule="nonzero">
            <g id="sidebar">
                <g id="menu" transform="translate(0.000000, 94.000000)">
                    <g id="menu-button" transform="translate(0.000000, 182.000000)">
                        <g id="result" transform="translate(24.000000, 18.000000)">
                            <path d="M14.6276902,0.00342684668 L10.0624728,0.65560076 C9.94019022,0.673209455 9.838125,0.757992064 9.79932065,0.875383368 C9.7605163,0.992774673 9.79084239,1.12190511 9.8782337,1.20897032 L11.604212,2.93494859 L7.82616848,6.71299206 L4.79584239,3.68266598 C4.66834239,3.55516598 4.46225543,3.55516598 4.33475543,3.68266598 L0.095625,7.92179641 C-0.031875,8.04929641 -0.031875,8.25538337 0.095625,8.38288337 C0.159211957,8.44647032 0.242690217,8.47842685 0.326168478,8.47842685 C0.409646739,8.47842685 0.493125,8.44647032 0.556711957,8.38288337 L4.56529891,4.37429641 L7.595625,7.4046225 C7.723125,7.5321225 7.92921196,7.5321225 8.05671196,7.4046225 L12.0652989,3.39603554 L13.7912772,5.1220138 C13.8532337,5.18397032 13.936712,5.21755728 14.0218207,5.21755728 C14.0563859,5.21755728 14.0909511,5.2120138 14.1248641,5.20060076 C14.2419293,5.16179641 14.327038,5.05973119 14.3443207,4.93744859 L14.9964946,0.372231195 C15.0111685,0.270492064 14.9769293,0.16810076 14.904212,0.0953833684 C14.8318207,0.023318151 14.7300815,-0.0115731533 14.6276902,0.00342684668 Z" id="Shape"></path>
                        </g>
                    </g>
                </g>
            </g>
        </g>
    </g>
</svg>