<?xml version="1.0" encoding="UTF-8"?>
<svg width="15px" height="15px" viewBox="0 0 15 15" version="1.1" xmlns="http://www.w3.org/2000/svg" xmlns:xlink="http://www.w3.org/1999/xlink">
    <!-- Generator: Sketch 50 (54983) - http://www.bohemiancoding.com/sketch -->
    <title>settings</title>
    <desc>Created with Sketch.</desc>
    <defs></defs>
    <g id="admin" stroke="none" stroke-width="1" fill="none" fill-rule="evenodd">
        <g id="admin---assignments---overview" transform="translate(-24.000000, -389.000000)" fill="#4C4C4C" fill-rule="nonzero">
            <g id="sidebar">
                <g id="menu" transform="translate(0.000000, 94.000000)">
                    <g id="menu-button" transform="translate(0.000000, 280.000000)">
                        <g id="settings" transform="translate(24.000000, 15.000000)">
                            <path d="M14.7009783,6.19695652 L12.8455435,6.04206522 C12.7229348,5.59173913 12.5432609,5.15934783 12.3097826,4.75206522 L13.5133696,3.32934783 C13.6229348,3.20021739 13.6151087,3.00815217 13.4951087,2.88815217 L12.1115217,1.5048913 C11.9918478,1.38554348 11.7997826,1.37673913 11.6703261,1.48630435 L10.2476087,2.69021739 C9.84,2.45673913 9.4076087,2.27706522 8.9576087,2.15445652 L8.80304348,0.299021739 C8.78902174,0.129782609 8.64782609,0 8.47826087,0 L6.52173913,0 C6.35217391,0 6.21097826,0.129782609 6.19663043,0.299021739 L6.04206522,2.15445652 C5.59206522,2.27706522 5.15967391,2.45673913 4.75206522,2.69021739 L3.32934783,1.48663043 C3.20021739,1.37706522 3.00815217,1.38554348 2.88815217,1.50521739 L1.5048913,2.88815217 C1.3848913,3.00782609 1.37706522,3.1998913 1.48663043,3.32934783 L2.69021739,4.75206522 C2.45641304,5.15967391 2.27706522,5.59206522 2.15445652,6.04206522 L0.299021739,6.19695652 C0.130108696,6.21097826 0,6.35184783 0,6.52173913 L0,8.47826087 C0,8.64815217 0.130108696,8.78902174 0.299021739,8.80304348 L2.15445652,8.95793478 C2.27706522,9.40826087 2.45673913,9.84065217 2.69021739,10.2479348 L1.48663043,11.67 C1.37706522,11.7994565 1.3848913,11.9911957 1.5048913,12.1115217 L2.88847826,13.4951087 C3.00847826,13.6147826 3.20054348,13.623587 3.32967391,13.5136957 L4.7523913,12.3101087 C5.16,12.543587 5.5923913,12.7232609 6.0423913,12.8458696 L6.19695652,14.7013043 C6.21097826,14.8702174 6.35217391,15 6.52173913,15 L8.47826087,15 C8.64782609,15 8.78902174,14.8702174 8.80336957,14.7009783 L8.95793478,12.8455435 C9.40793478,12.7229348 9.84032609,12.5432609 10.2479348,12.3097826 L11.6706522,13.5133696 C11.8001087,13.6232609 11.9921739,13.6147826 12.1118478,13.4947826 L13.4954348,12.1111957 C13.6154348,11.9911957 13.6232609,11.7994565 13.5136957,11.6696739 L12.3101087,10.2476087 C12.543587,9.84032609 12.7232609,9.40793478 12.8458696,8.9576087 L14.7013043,8.80271739 C14.8698913,8.78902174 15,8.64815217 15,8.47826087 L15,6.52173913 C15,6.35184783 14.8698913,6.21097826 14.7009783,6.19695652 Z M7.5,9.7826087 C6.24130435,9.7826087 5.2173913,8.75836957 5.2173913,7.5 C5.2173913,6.24163043 6.24130435,5.2173913 7.5,5.2173913 C8.75869565,5.2173913 9.7826087,6.24163043 9.7826087,7.5 C9.7826087,8.75836957 8.75869565,9.7826087 7.5,9.7826087 Z" id="Shape"></path>
                        </g>
                    </g>
                </g>
            </g>
        </g>
    </g>
</svg>