<?xml version="1.0" encoding="UTF-8"?>
<svg width="64px" height="49px" viewBox="0 0 64 49" version="1.1" xmlns="http://www.w3.org/2000/svg" xmlns:xlink="http://www.w3.org/1999/xlink">
    <!-- Generator: Sketch 49.3 (51167) - http://www.bohemiancoding.com/sketch -->
    <title>students-icon</title>
    <desc>Created with Sketch.</desc>
    <defs></defs>
    <g id="admin" stroke="none" stroke-width="1" fill="none" fill-rule="evenodd">
        <g id="admin---dashboard" transform="translate(-299.000000, -164.000000)" fill="#F44336" fill-rule="nonzero">
            <g id="dashboard-content" transform="translate(280.000000, 100.000000)">
                <g id="student-card">
                    <g id="students-icon" transform="translate(19.000000, 64.000000)">
                        <path d="M49,28 C55.094,28 60,20.4013889 60,14.1111111 C60,7.98472222 55.065125,3 49,3 C42.934875,3 38,7.98472222 38,14.1111111 C38,20.4013889 42.906,28 49,28 Z" id="Shape"></path>
                        <path d="M19.5,28 C26.4236111,28 32,19.5748 32,12.6 C32,5.6532 26.3930556,0 19.5,0 C12.6069444,0 7,5.6532 7,12.6 C7,19.5748 12.5763889,28 19.5,28 Z" id="Shape"></path>
                        <path d="M60.2129743,33.6854545 C57.8026715,32.9163636 53.8648289,32 48.7799478,32 C44.1198446,32 40.4379756,32.7690909 38,33.4904545 C40.38263,35.2672727 41.8617423,38.0681818 41.8617423,41.1063636 L41.8617423,47 L62.6163589,47 C63.3815124,47 64,46.3890909 64,45.6363636 L64,38.8618182 C64,36.4890909 62.4766111,34.4095455 60.2129743,33.6854545 Z" id="Shape"></path>
                        <path d="M34.3450714,30.744 C30.8462143,29.4924 25.4307857,28 19.5,28 C13.5692143,28 8.15378571,29.4924 4.65492857,30.744 C1.87060714,31.7394 0,34.3938 0,37.3492 L0,47.6 C0,48.3728 0.622607143,49 1.39285714,49 L37.6071429,49 C38.3773929,49 39,48.3728 39,47.6 L39,37.3492 C39,34.3938 37.1293929,31.7394 34.3450714,30.744 Z" id="Shape"></path>
                    </g>
                </g>
            </g>
        </g>
    </g>
</svg>